<svg width="20" height="20" viewBox="0 0 20 20" xmlns="http://www.w3.org/2000/svg">
    <g transform="translate(0 4)" fill="none" fill-rule="evenodd">
        <path d="M3 0h9.897a4 4 0 0 1 3.476 2.02l2.365 4.155a2 2 0 0 1 .262.99V9a2 2 0 0 1-2 2" stroke="#94949A" stroke-width="2" stroke-linecap="round" stroke-linejoin="round"/>
        <path stroke="#94949A" stroke-width="2" stroke-linejoin="round" d="M10.822 0v5.5H18"/>
        <rect fill="#94949A" x="1" y="3" width="6" height="2" rx="1"/>
        <rect fill="#94949A" y="6" width="4" height="2" rx="1"/>
        <rect fill="#94949A" x="9" y="10" width="5" height="2" rx="1"/>
        <rect fill="#94949A" x="2" y="10" width="3" height="2" rx="1"/>
        <circle stroke="#94949A" stroke-width="2" cx="7" cy="11" r="2"/>
        <circle stroke="#94949A" stroke-width="2" cx="15" cy="11" r="2"/>
    </g>
</svg>
