<svg width="70" height="16" viewBox="0 0 70 16" xmlns="http://www.w3.org/2000/svg">
    <path d="M23.986 3.518h7.556v2.723h-7.556c-.97 0-1.76.79-1.76 1.76v6.24c0 .97.79 1.76 1.76 1.76H35.06v-3.519h-9.316V9.759h9.316V0H23.986c-.97 0-1.76.79-1.76 1.76s.79 1.758 1.76 1.758M37.719 16h3.519V0h-3.519v16zM5.934 6.24h7.656V3.519H5.934v2.723zM1.759 3.519h.657v2.723h-.657C.79 6.24 0 7.03 0 8c0 .97.79 1.76 1.76 1.76H19.01V6.24H17.11V3.519h1.902V0H1.76C.79 0 0 .79 0 1.76c0 .97.79 1.76 1.76 1.76zM5.934 16H19.01v-3.518H5.934c-.97 0-1.76.789-1.76 1.759 0 .97.79 1.76 1.76 1.76m-4.175-3.519c-.97 0-1.759.79-1.759 1.76S.79 16 1.76 16s1.758-.789 1.758-1.759c0-.97-.789-1.759-1.759-1.759m42.694 1.76c0 .97.79 1.758 1.76 1.758h10.946v-3.518H46.212c-.97 0-1.759.789-1.759 1.76m0-6.242c0 .97.79 1.76 1.76 1.76h10.946V6.24H46.212c-.97 0-1.759.789-1.759 1.76m0-6.242c0 .97.79 1.76 1.76 1.76h10.946V0H46.212c-.97 0-1.759.79-1.759 1.76M59.946 16h3.518V0h-3.518v16zm8.064 0c.97 0 1.76-.789 1.76-1.759 0-.97-.79-1.76-1.76-1.76s-1.76.79-1.76 1.76.79 1.76 1.76 1.76" fill="#EF4125" fill-rule="evenodd"/>
</svg>
