<svg width="50" height="50" viewBox="0 0 50 50" xmlns="http://www.w3.org/2000/svg">
    <g fill="none" fill-rule="evenodd">
        <path d="M0 0h50v50H0z"/>
        <path d="M16.551 22.87v-4.048c0-3.49 2.795-6.32 6.243-6.32h15.16v-1.769c0-3.491-2.796-6.321-6.244-6.321H6.243C2.795 4.412 0 7.242 0 10.733v13.118c0 3.491 2.795 6.321 6.243 6.321H7.33v5.794c0 1.592 2.103 2.126 2.845.721l3.442-6.515h2.935V22.87z" fill="#FFF"/>
        <path d="M43.757 12.501h-5.804v11.35c0 3.491-2.795 6.321-6.243 6.321H16.551v1.769c0 3.49 2.795 6.32 6.243 6.32h13.59l3.442 6.516c.742 1.404 2.845.87 2.845-.722v-5.793h1.086c3.448 0 6.243-2.83 6.243-6.321V18.822c0-3.49-2.795-6.32-6.243-6.32" fill="#FFC55C"/>
        <path d="M18.726 30.172H31.71c3.448 0 6.243-2.83 6.243-6.32V12.5H22.794c-3.448 0-6.243 2.83-6.243 6.321v11.35h2.175z" fill="#F78470"/>
    </g>
</svg>
