<svg width="34" height="34" viewBox="0 0 34 34" xmlns="http://www.w3.org/2000/svg">
    <g stroke="#3F4970" stroke-width="2" fill="none" fill-rule="evenodd">
        <path d="M14.298 16H5.75C3.679 16 2 14.567 2 12.8v-1.6C2 9.433 3.679 8 5.75 8h22.5C30.321 8 32 9.433 32 11.2v1.6c0 1.767-1.679 3.2-3.75 3.2h-8.33M19.82 16H30v13.421C30 31.398 28.337 33 26.286 33H7.714C5.663 33 4 31.398 4 29.421V16h10.143M10 2h2a5 5 0 0 1 5 5v1h-7a3 3 0 1 1 0-6zM24 2h-2a5 5 0 0 0-5 5v1h7a3 3 0 0 0 0-6z"/>
        <path d="M14 8h6v25h-6z"/>
    </g>
</svg>
