<svg width="34" height="34" viewBox="0 0 34 34" xmlns="http://www.w3.org/2000/svg">
    <g fill="none" fill-rule="evenodd">
        <path d="m24.34 9.66-5.62 5.62L6.2 8.547l-.822-.439a1.884 1.884 0 0 1-.439-2.99 1.878 1.878 0 0 1 1.843-.477l2.583.74L24.34 9.66z"/>
        <path d="M14.612 13.07 6.199 8.548l-.821-.439a1.884 1.884 0 0 1-.439-2.99 1.878 1.878 0 0 1 1.843-.477l2.583.74 9.83 2.809" stroke="#3F4970" stroke-width="2" stroke-linecap="round" stroke-linejoin="round"/>
        <path d="M25.895 28.622 18.721 15.28l5.62-5.62 5.016 17.558a1.879 1.879 0 0 1-3.462 1.406"/>
        <path d="m25.9 15.114 3.457 12.103a1.88 1.88 0 0 1-3.462 1.405l-4.91-9.132" stroke="#3F4970" stroke-width="2" stroke-linecap="round" stroke-linejoin="round"/>
        <path d="M13.18 27.164c-.117-1.86.89-3.635 2.584-4.411 2.445-1.122 5.415-3.262 8.254-6.102 5.39-5.39 8.266-11.252 6.424-13.094-1.841-1.842-7.703 1.035-13.093 6.425-2.84 2.84-4.98 5.809-6.102 8.254-.776 1.693-2.552 2.7-4.411 2.583l-2.79-.177L3 21.688l5.983 3.329L12.312 31l1.045-1.046-.176-2.79z"/>
        <path d="M13.18 27.164c-.117-1.86.89-3.635 2.584-4.411 2.445-1.122 5.415-3.262 8.254-6.102 5.39-5.39 8.266-11.252 6.424-13.094-1.841-1.842-7.703 1.035-13.093 6.425-2.84 2.84-4.98 5.809-6.102 8.254-.776 1.693-2.552 2.7-4.411 2.583l-2.79-.177L3 21.688l5.983 3.329L12.312 31l1.045-1.046-.176-2.79zM9.365 5.381 6.2 8.547l-.82-.44c-.168-.09-.316-.2-.44-.324a1.886 1.886 0 0 1 0-2.665 1.883 1.883 0 0 1 1.843-.477l2.583.74zM28.619 24.634 25.452 27.8l.44.822c.09.167.2.315.324.44a1.886 1.886 0 0 0 2.666 0c.481-.483.663-1.19.477-1.844l-.74-2.584z" stroke="#3F4970" stroke-width="2" stroke-linecap="round" stroke-linejoin="round"/>
    </g>
</svg>
