<svg width="34" height="34" viewBox="0 0 34 34" xmlns="http://www.w3.org/2000/svg">
    <g fill="none" fill-rule="evenodd">
        <rect stroke="#3F4970" stroke-width="2" x="2" y="2" width="30" height="30" rx="8"/>
        <path d="M13.25 15.21h2.6v.937h-2.6a.606.606 0 0 0-.604.605v2.147c0 .333.271.605.605.605h3.81v-1.21h-3.205v-.937h3.205V14h-3.81a.606.606 0 0 0 0 1.21m4.724 4.294h1.21V14h-1.21v5.504zM7.041 16.147h2.634v-.937H7.041v.937zm-1.436-.937h.226v.937h-.226a.606.606 0 0 0 0 1.21h5.935v-1.21h-.655v-.937h.655V14H5.605a.606.606 0 0 0 0 1.21zm1.436 4.294h4.499v-1.21H7.04a.606.606 0 0 0 0 1.21m-1.436-1.21a.606.606 0 1 0 .001 1.211.606.606 0 0 0 0-1.211m14.686.605c0 .333.271.605.605.605h3.765v-1.21h-3.765a.606.606 0 0 0-.605.605m0-2.147c0 .334.271.605.605.605h3.765v-1.21h-3.765a.606.606 0 0 0-.605.605m0-2.147c0 .334.271.605.605.605h3.765V14h-3.765a.606.606 0 0 0-.605.605m5.329 4.899h1.21V14h-1.21v5.504zm2.774 0a.606.606 0 1 0-.001-1.212.606.606 0 0 0 0 1.212" fill="#3F4970"/>
    </g>
</svg>
