<svg width="20" height="20" viewBox="0 0 20 20" xmlns="http://www.w3.org/2000/svg" xmlns:xlink="http://www.w3.org/1999/xlink">
    <defs>
        <path id="hy6p4gnbpa" d="M0 0h20v20H0z"/>
    </defs>
    <g fill="none" fill-rule="evenodd">
        <mask id="hp0aylscnb" fill="#fff">
            <use xlink:href="#hy6p4gnbpa"/>
        </mask>
        <path d="M10 8.36c-.96 0-1.74.736-1.74 1.64 0 .904.78 1.64 1.74 1.64s1.74-.736 1.74-1.64c0-.904-.78-1.64-1.74-1.64m0 5.373c-2.185 0-3.963-1.675-3.963-3.734 0-2.057 1.778-3.732 3.963-3.732S13.963 7.942 13.963 10c0 2.06-1.778 3.734-3.963 3.734m-4.275.85c.435 0 .87.109 1.267.324.793.431 1.268 1.205 1.268 2.067 0 .515.443.933.989.933h1.502c.546 0 .99-.418.99-.933 0-.862.474-1.636 1.267-2.067a2.64 2.64 0 0 1 2.535 0c.229.125.495.156.75.093a.983.983 0 0 0 .602-.434l.751-1.226c.272-.445.11-1.015-.362-1.272-.795-.433-1.268-1.205-1.268-2.069 0-.862.473-1.635 1.268-2.067.472-.256.634-.827.361-1.272l-.75-1.226A.983.983 0 0 0 16.294 5a1.04 1.04 0 0 0-.751.092 2.636 2.636 0 0 1-2.535 0c-.793-.431-1.268-1.204-1.268-2.067 0-.514-.443-.932-.989-.932H9.25c-.546 0-.99.418-.99.932 0 .863-.474 1.636-1.267 2.068a2.648 2.648 0 0 1-2.535 0A1.04 1.04 0 0 0 3.707 5a.983.983 0 0 0-.602.434L2.354 6.66c-.272.445-.11 1.016.362 1.272.795.432 1.268 1.205 1.268 2.067 0 .864-.473 1.636-1.268 2.069-.472.256-.634.827-.361 1.272l.75 1.226c.133.216.346.37.601.434.256.063.522.032.751-.093a2.652 2.652 0 0 1 1.268-.323M10.751 20H9.25c-1.771 0-3.212-1.357-3.212-3.026a.28.28 0 0 0-.156-.254.312.312 0 0 0-.312 0 3.368 3.368 0 0 1-2.437.302 3.172 3.172 0 0 1-1.95-1.41L.43 14.388c-.885-1.444-.359-3.298 1.175-4.132a.277.277 0 0 0 .157-.256.277.277 0 0 0-.157-.254C.07 8.911-.455 7.057.429 5.613l.752-1.226c.43-.7 1.122-1.2 1.95-1.41a3.368 3.368 0 0 1 2.438.303c.128.07.24.04.312 0a.28.28 0 0 0 .156-.255C6.037 1.357 7.477 0 9.25 0h1.502c1.771 0 3.212 1.357 3.212 3.025a.28.28 0 0 0 .156.255c.071.04.185.07.312 0a3.375 3.375 0 0 1 2.437-.302c.83.209 1.522.71 1.95 1.41l.752 1.225c.885 1.444.359 3.298-1.175 4.132a.277.277 0 0 0-.157.254c0 .078.027.186.157.256 1.534.834 2.06 2.688 1.176 4.132l-.752 1.226c-.43.7-1.122 1.2-1.95 1.41a3.358 3.358 0 0 1-2.438-.303.317.317 0 0 0-.312 0 .28.28 0 0 0-.156.254c0 1.669-1.44 3.026-3.212 3.026" fill="#111" mask="url(#hp0aylscnb)"/>
    </g>
</svg>
