<svg width="20" height="20" viewBox="0 0 20 20" xmlns="http://www.w3.org/2000/svg">
    <g fill="none" fill-rule="evenodd">
        <g stroke="#111" stroke-width="2">
            <path d="M10 1c1.582 0 3.036.598 4.134 1.59a6.155 6.155 0 0 1 2.004 3.95l.398 3.882c.345.207.646.48.883.804.365.497.581 1.11.581 1.774a2.99 2.99 0 0 1-.879 2.121A2.99 2.99 0 0 1 15 16H5a2.99 2.99 0 0 1-2.121-.879A2.99 2.99 0 0 1 2 13c0-.664.216-1.277.58-1.774.238-.323.539-.597.884-.804l.398-3.882a6.155 6.155 0 0 1 2.004-3.95A6.155 6.155 0 0 1 10 1z"/>
            <path d="M7 16a3 3 0 0 0 6 0"/>
        </g>
    </g>
</svg>
